<svg width="199" height="63" viewBox="0 0 199 63" fill="none" xmlns="http://www.w3.org/2000/svg">
<g id="FP" clip-path="url(#clip0_339_215)">
<path id="Vector" d="M62.885 33.2538C62.5052 40.8354 59.42 48.0593 53.5039 53.9171C46.8989 60.4547 38.7216 63.4191 29.5287 62.9519C22.2237 62.5813 15.6879 59.7765 10.2739 54.7548C3.41629 48.3977 -0.113113 40.4423 0.00276389 31.1079C0.117031 21.9008 3.68506 14.0453 10.5926 7.90076C16.6536 2.50858 23.883 -0.222141 31.9702 0.0146825C50.0903 0.543106 63.2841 14.9588 62.885 33.2554V33.2538ZM29.0041 2.6133C21.2275 3.2835 14.7191 6.53781 9.60763 12.4455C4.48815 18.3645 2.20763 25.2856 2.49572 33.1298C3.00268 46.9574 15.8682 62.8681 35.58 60.2082C42.634 59.2561 48.7046 55.9583 53.3317 50.4936C58.662 44.1993 61.1437 36.8481 60.2601 28.5544C59.4119 20.5974 55.9582 13.9341 49.6767 8.93344C43.6592 4.14219 36.771 1.92055 29.0024 2.6133H29.0041Z" fill="#023B81"/>
<path id="Vector_2" d="M136.518 47.2165C135.366 47.2165 134.206 47.1311 133.063 47.2422C132.104 47.3357 131.71 46.7235 131.306 46.1242C129.506 43.4434 127.746 40.7384 125.959 38.0496C125.673 37.6178 125.525 36.8623 125.006 36.8848C124.604 36.9025 124.395 37.6227 124.115 38.0448C122.266 40.8464 120.388 43.6271 118.546 46.4335C118.233 46.912 117.87 47.1311 117.315 47.1279C114.796 47.1198 112.276 47.1327 109.756 47.1182C108.716 47.1117 108.34 46.448 108.93 45.5796C110.318 43.5384 111.768 41.5424 113.169 39.5124C114.69 37.3085 116.176 35.0804 117.693 32.8749C118.252 32.063 118.847 31.2768 119.441 30.4906C119.66 30.2006 119.967 30.0814 120.351 30.0814C123.513 30.0926 126.677 30.1039 129.839 30.0733C130.478 30.0669 130.763 30.4954 131.029 30.8837C132.796 33.463 134.516 36.0745 136.271 38.665C137.793 40.9141 139.333 43.1502 140.88 45.3815C141.186 45.8229 141.397 46.2805 141.162 46.7879C140.909 47.3325 140.363 47.2084 139.898 47.2116C138.773 47.2197 137.647 47.2132 136.522 47.2132L136.518 47.2165Z" fill="#023B81"/>
<path id="Vector_3" d="M73.3164 31.4041C73.3164 26.5774 73.3164 21.7507 73.3164 16.924C73.3164 15.8946 73.4773 15.7286 74.5235 15.727C77.2031 15.7238 79.8827 15.7238 82.5624 15.727C83.6037 15.727 83.8354 15.9558 83.8386 16.9836C83.8435 18.6736 83.8306 20.362 83.8451 22.052C83.8515 22.7174 83.6536 23.1153 82.8971 23.133C82.226 23.1491 81.9186 23.4842 81.9846 24.2414C82.0699 25.2258 82.0265 26.2246 81.9959 27.2154C81.9814 27.6826 82.1504 27.8002 82.5962 27.805C83.7855 27.8195 83.8402 27.8985 83.8402 29.1132C83.8402 30.7758 83.8435 32.4384 83.8402 34.101C83.837 35.0241 83.6713 35.2336 82.7829 35.182C82.094 35.1418 81.9347 35.3866 81.9412 36.0407C81.9717 39.3128 81.9572 42.5832 81.954 45.8552C81.954 47.0941 81.8285 47.2149 80.5555 47.2149C78.6532 47.2166 76.7509 47.2149 74.8486 47.2149C73.4355 47.2149 73.3212 47.1022 73.3196 45.7231C73.3196 40.9496 73.3196 36.176 73.3196 31.4041H73.3164Z" fill="#023B81"/>
<path id="Vector_4" d="M125.067 23.792C126.614 21.398 128.12 19.0749 129.614 16.7437C130.042 16.0751 130.558 15.6627 131.418 15.6756C133.776 15.7094 136.135 15.6933 138.494 15.682C138.879 15.6804 139.267 15.6981 139.563 15.9253C139.936 16.2105 140.104 16.523 139.73 17.0337C138.496 18.7253 137.332 20.4685 136.137 22.189C134.667 24.3011 133.196 26.4132 131.717 28.5189C131.453 28.8942 131.074 29.036 130.604 29.0344C126.931 29.0231 123.258 28.9989 119.586 29.0457C118.52 29.0586 118.195 28.274 117.744 27.6296C115.361 24.2206 113.013 20.7874 110.639 17.3704C110.357 16.9644 110.377 16.5327 110.499 16.1331C110.621 15.7352 111.048 15.7706 111.397 15.7706C113.97 15.769 116.544 15.7722 119.117 15.7674C119.663 15.7674 120.06 15.9559 120.361 16.4424C121.725 18.656 123.12 20.8503 124.478 23.0671C124.636 23.3264 124.837 23.5198 125.069 23.7904L125.067 23.792Z" fill="#023B81"/>
<path id="Vector_5" d="M99.0592 35.68C99.0592 32.2468 99.0769 28.8137 99.0431 25.3805C99.0366 24.7087 99.3472 24.4171 99.9057 24.4075C101.863 24.3752 103.82 24.3913 105.777 24.3994C106.176 24.401 106.419 24.6362 106.496 25.0229C106.591 25.4885 106.702 25.9444 106.702 26.4342C106.688 32.7124 106.694 38.9907 106.691 45.2689C106.691 45.5895 106.638 45.9085 106.641 46.2291C106.646 47.0056 106.216 47.2328 105.511 47.2247C103.742 47.2054 101.972 47.2247 100.203 47.2167C99.2507 47.2118 99.1026 47.0556 99.101 46.0632C99.0978 42.6026 99.101 39.1421 99.101 35.6832C99.0881 35.6832 99.0753 35.6832 99.0624 35.6832L99.0592 35.68Z" fill="#023B81"/>
<path id="Vector_6" d="M139.978 32.6428C139.883 31.5828 139.836 30.2456 139.939 28.9761C140.086 27.1604 139.933 25.3545 140.086 23.5485C140.288 21.1609 142.503 18.6783 144.877 18.311C146.003 18.1354 147.127 17.9662 148.285 18.2675C150.007 18.7137 151.464 19.603 152.27 21.1464C153.852 24.1687 153.86 27.2571 151.998 30.2085C151.318 31.2863 150.196 31.8502 149.042 32.3061C146.821 33.1825 144.754 32.7024 142.785 31.5344C142.579 31.412 142.377 31.1848 142.157 31.3057C141.967 31.4104 142.08 31.6988 142.078 31.9034C142.07 33.3533 142.059 34.8016 142.083 36.2516C142.091 36.7462 141.986 36.9653 141.425 36.9669C139.976 36.9701 139.976 36.9991 139.976 35.5459C139.976 34.6599 139.976 33.7738 139.976 32.6444L139.978 32.6428ZM142.173 25.3287C142.173 25.8845 142.158 26.3146 142.176 26.7432C142.255 28.67 143.731 30.5179 145.596 30.8191C147.737 31.1655 149.533 30.3616 150.617 28.4638C151.276 27.3135 151.174 26.0665 151.186 24.8228C151.195 23.6049 150.827 22.5625 149.996 21.6491C148.718 20.2442 147.104 19.8012 145.374 20.2845C143.864 20.7066 142.709 21.699 142.307 23.3809C142.139 24.0817 142.234 24.7664 142.173 25.3287Z" fill="#7EC501"/>
<path id="Vector_7" d="M90.7732 23.2443C89.1911 23.2443 87.6091 23.2492 86.0271 23.2427C85.1886 23.2395 84.8973 22.985 84.886 22.1504C84.8619 20.3267 84.8731 18.5014 84.878 16.6777C84.878 16.0446 85.1516 15.7175 85.8452 15.7191C89.0093 15.7256 92.1717 15.695 95.3358 15.6934C96.2499 15.6934 96.5268 15.9801 96.5316 16.8823C96.5396 18.5997 96.5396 20.3171 96.5316 22.0344C96.5284 23.0172 96.287 23.2427 95.2779 23.2443C93.7763 23.2476 92.2747 23.2443 90.7732 23.2443Z" fill="#023B81"/>
<path id="Vector_8" d="M183.863 39.6414C183.974 42.5751 181.561 44.7951 178.673 44.8821C175.602 44.9756 173.514 42.2948 173.399 39.651C173.28 36.9413 175.787 34.1864 178.858 34.3652C181.177 34.5005 184.159 36.6126 183.863 39.6414Z" fill="#7EC501"/>
<path id="Vector_9" d="M193.277 26.5096C191.642 26.5096 190.007 26.5273 188.372 26.4999C187.812 26.4902 187.676 26.7174 187.755 27.2184C187.984 28.6813 189.843 30.6387 191.314 30.8191C192.765 30.9963 194.183 30.7821 195.345 29.809C195.844 29.3917 196.113 29.3933 196.549 29.8815C197.309 30.7353 197.344 30.7047 196.433 31.4168C194.354 33.0424 190.697 33.1874 188.61 31.6794C186.753 30.3374 185.623 28.5894 185.739 26.1922C185.776 25.4157 185.702 24.6327 185.764 23.8594C185.949 21.5991 187.213 20.009 189.097 18.9199C191.225 17.6923 193.444 17.7471 195.569 18.9231C197.432 19.9558 198.654 21.4912 198.873 23.7241C198.944 24.4442 198.966 25.1579 199 25.8764C199.024 26.3742 198.831 26.5225 198.345 26.516C196.657 26.4918 194.967 26.5063 193.279 26.508L193.277 26.5096ZM192.305 24.42C193.322 24.42 194.339 24.42 195.355 24.42C197.17 24.42 197.217 24.4007 196.522 22.7574C195.907 21.3059 194.732 20.3183 193.205 20.1089C190.588 19.7512 188.639 20.9208 187.805 23.6483C187.638 24.1929 187.749 24.4394 188.37 24.4281C189.68 24.4023 190.992 24.42 192.303 24.42H192.305Z" fill="#7EC501"/>
<path id="Vector_10" d="M193.487 34.499C196.678 34.1768 198.767 37.2845 198.851 39.4498C198.954 42.1096 196.422 44.8742 193.653 44.9048C190.777 44.937 188.309 42.6493 188.255 39.6399C188.198 36.5676 191.045 34.064 193.487 34.499Z" fill="#023B81"/>
<path id="Vector_11" d="M163.749 34.5039C167.024 34.2478 168.762 37.0123 168.956 38.8505C169.136 40.5502 168.766 42.1403 167.525 43.3647C166.55 44.3281 165.341 44.8066 163.91 44.8855C160.754 45.0595 158.585 42.1193 158.588 40.3681C158.598 36.5048 160.345 34.5136 163.748 34.5039H163.749Z" fill="#7EC501"/>
<path id="Vector_12" d="M90.1766 35.1982C88.7828 35.1982 87.3907 35.2046 85.997 35.1966C85.041 35.1901 84.9058 35.0419 84.9042 34.0592C84.9026 32.316 84.901 30.5728 84.9042 28.8313C84.9058 27.8985 85.107 27.6858 86.0324 27.6842C88.7925 27.6778 91.551 27.7036 94.3111 27.6681C95.1222 27.6585 95.4634 28.0902 95.4795 28.7604C95.5246 30.6099 95.5021 32.4594 95.4892 34.3105C95.4844 34.9291 95.1383 35.2078 94.5171 35.2014C93.0703 35.1885 91.6234 35.1965 90.1766 35.1982Z" fill="#023B81"/>
<path id="Vector_13" d="M182.974 21.625C181.87 20.7099 180.702 19.9366 179.154 20.0623C177.298 20.2121 174.873 22.0552 174.993 24.1157C175.062 25.2869 174.737 26.5162 175.125 27.6262C176.186 30.6598 179.53 32.1065 182.475 29.7076C183.377 28.973 183.558 29.88 183.983 30.1636C184.574 30.5583 184.263 30.9659 183.824 31.2623C181.745 32.6655 179.588 33.2568 177.081 32.3288C173.949 31.1705 172.854 28.8457 172.875 25.7412C172.885 24.3106 172.959 22.9429 173.624 21.5767C174.406 19.9737 175.611 19.0441 177.184 18.4335C179.722 17.4492 181.927 18.1307 183.964 19.7546C184.527 20.2025 184.389 20.5198 183.914 20.8791C183.595 21.1191 183.288 21.3753 182.976 21.6234L182.974 21.625Z" fill="#7EC501"/>
<path id="Vector_14" d="M102.749 23.3052C101.838 23.3052 100.925 23.2827 100.014 23.3133C99.4154 23.3342 99.0759 23.091 99.071 22.4981C99.0566 20.4875 99.0566 18.4753 99.0743 16.4647C99.0791 15.9186 99.3881 15.6753 99.961 15.6818C101.81 15.7027 103.659 15.6818 105.509 15.6914C106.268 15.6947 106.671 16.0523 106.682 16.8063C106.708 18.63 106.711 20.4537 106.68 22.2774C106.669 22.9476 106.304 23.3359 105.562 23.3133C104.625 23.2843 103.685 23.3069 102.747 23.3052H102.749Z" fill="#023B81"/>
<path id="Vector_15" d="M157.119 27.9692C157.119 29.2823 157.095 30.5969 157.131 31.9083C157.145 32.4608 156.992 32.6461 156.416 32.6348C155.056 32.6091 155.055 32.6397 155.055 31.3009C155.055 29.076 155.045 26.8512 155.056 24.6279C155.071 21.7941 156.318 19.6321 158.93 18.5736C161.602 17.4926 163.984 17.8003 166.293 19.9269C166.591 20.2008 166.591 20.3909 166.29 20.6213C166.269 20.6374 166.251 20.6583 166.233 20.6777C165.31 21.662 165.284 21.6974 164.249 20.9419C161.473 18.9152 158.003 20.668 157.219 23.4052C157.105 23.8063 157.136 24.1978 157.126 24.5909C157.102 25.7154 157.118 26.8415 157.116 27.9676L157.119 27.9692Z" fill="#7EC501"/>
<path id="Vector_16" d="M168.383 25.5368C168.383 23.3635 168.379 21.1902 168.384 19.0169C168.384 18.3451 168.754 18.1582 169.873 18.1437C170.526 18.1356 170.52 18.5384 170.52 18.9959C170.517 23.3167 170.509 27.636 170.528 31.9568C170.531 32.5948 170.303 32.8493 169.678 32.7704C169.521 32.751 169.353 32.7462 169.197 32.7704C168.561 32.8719 168.362 32.6157 168.371 31.9761C168.405 29.8302 168.384 27.6827 168.384 25.5368H168.383Z" fill="#7EC501"/>
<path id="Vector_17" d="M29.0052 2.61334C36.7737 1.92059 43.6619 4.14223 49.6794 8.93348C55.9609 13.9358 59.4131 20.5975 60.2628 28.5544C61.148 36.8481 58.6647 44.1993 53.3344 50.4937C48.7058 55.9583 42.6367 59.2578 35.5828 60.2083C15.8693 62.8681 3.00541 46.9574 2.49684 33.1298C2.20876 25.2856 4.48927 18.3646 9.60875 12.4456C14.7202 6.53785 21.227 3.28354 29.0052 2.61334ZM29.4478 8.43567C18.7163 8.23107 8.51437 18.9381 8.41619 31.2417C8.31319 44.064 18.8628 54.6179 31.4643 54.5342C44.222 54.4504 54.5382 44.13 54.5012 31.5333C54.4819 24.8297 52.0147 19.0557 47.0449 14.5061C42.6544 10.4865 37.4255 8.45339 29.4478 8.43567Z" fill="#7EC501"/>
<path id="Vector_18" d="M20.6914 32.3788C20.6914 27.5231 20.6914 22.6658 20.6914 17.8101C20.6914 16.9224 20.9763 16.6147 21.8518 16.6131C24.533 16.605 27.2143 16.6034 29.8955 16.6131C30.7823 16.6163 31.1364 16.9853 31.1428 17.8891C31.1541 19.4985 31.146 21.1079 31.146 22.719C31.146 23.8258 30.9497 24.1061 29.8585 24.2092C29.3741 24.2559 29.2952 24.4202 29.3033 24.8375C29.3242 25.9378 29.3306 27.0382 29.3017 28.1369C29.2888 28.6363 29.461 28.7636 29.9486 28.7556C31.0495 28.7362 31.138 28.8426 31.1444 29.9204C31.1525 31.5846 31.1444 33.2472 31.1476 34.9114C31.1476 35.5655 31.0302 36.0456 30.1804 36.0278C29.5994 36.0149 29.2083 36.2566 29.2212 37.0364C29.2743 40.3084 29.2453 43.582 29.2437 46.8557C29.2437 47.8304 29.0699 48.043 28.0866 48.0559C25.9155 48.0849 23.7444 48.064 21.5734 48.0865C20.9859 48.093 20.7445 47.8143 20.7349 47.2697C20.7268 46.8138 20.7316 46.3579 20.7316 45.9019C20.7316 41.3942 20.7316 36.8881 20.7316 32.3804C20.7188 32.3804 20.7059 32.3804 20.693 32.3804L20.6914 32.3788Z" fill="#023B81"/>
<path id="Vector_19" d="M38.0358 16.6084C39.5905 16.6084 41.1467 16.602 42.7014 16.61C43.4771 16.6148 43.8296 16.9564 43.8328 17.7136C43.8409 19.431 43.8425 21.1483 43.8328 22.8657C43.828 23.6938 43.4965 24.0353 42.6853 24.0369C39.6017 24.045 36.5165 24.045 33.4329 24.0369C32.514 24.0337 32.3192 23.8227 32.316 22.8834C32.3096 21.166 32.3079 19.4487 32.316 17.7313C32.3208 16.7711 32.485 16.6132 33.449 16.61C34.9779 16.6036 36.5069 16.61 38.0342 16.6084H38.0358Z" fill="#023B81"/>
<path id="Vector_20" d="M37.575 28.6653C38.9414 28.6653 40.3078 28.6605 41.6758 28.6669C42.5288 28.6718 42.7573 28.8925 42.7637 29.7641C42.7766 31.5072 42.7669 33.2504 42.7669 34.9935C42.7669 35.7153 42.4209 36.0359 41.6887 36.0359C39.009 36.0343 36.331 36.0633 33.6513 36.0697C32.4556 36.0729 32.3155 35.9199 32.3139 34.7309C32.3139 33.0683 32.3107 31.4057 32.3139 29.7431C32.3155 28.8538 32.491 28.6734 33.3938 28.6669C34.7876 28.6573 36.1813 28.6637 37.575 28.6637V28.6653Z" fill="#023B81"/>
</g>
<defs>
<clipPath id="clip0_339_215">
<rect width="199" height="63" fill="white"/>
</clipPath>
</defs>
</svg>
