<svg width="206" height="37" viewBox="0 0 206 37" fill="none" xmlns="http://www.w3.org/2000/svg">
<g id="&#208;&#188;&#208;&#176;&#208;&#179;&#208;&#189;&#209;&#131;&#208;&#188;" clip-path="url(#clip0_339_206)">
<path id="Vector" d="M47.3861 26.9924H38.1197C38.1197 26.3295 38.1197 25.7612 38.1197 25.1614C38.1197 20.268 38.1197 15.3747 38.0878 10.4813C38.0878 8.14517 37.1292 7.13493 35.2759 7.57691C34.4771 7.76633 33.5824 8.52401 33.1671 9.25012C32.7517 10.0394 32.7197 11.1127 32.7197 12.0914C32.6878 16.4481 32.7197 20.8047 32.7197 25.1614C32.7197 25.7296 32.7197 26.3295 32.7197 26.9924H23.4853C23.4853 23.867 23.4853 20.8679 23.4853 17.8687C23.4853 15.4063 23.4853 12.9122 23.4534 10.4498C23.4214 8.36616 22.7504 7.57691 21.2167 7.51377C19.4912 7.45063 18.4368 8.23988 18.277 10.2288C18.0534 12.6912 18.0853 15.1537 18.0853 17.6477C18.0853 20.71 18.0853 23.7723 18.0853 26.9609H9.07461V11.7757C7.95626 11.3022 6.74205 11.1759 6.1669 10.4813C5.30417 9.50267 5.04855 7.95575 4.18582 6.97708C3.35505 6.02998 1.72545 5.68271 1.02249 4.70404C0.351481 3.72537 0.351481 2.24158 0 0.694654C2.87576 0.694654 5.30417 0.694654 7.76454 0.694654C10.3208 0.694654 12.877 0.789364 15.4332 0.694654C16.9031 0.631515 17.5421 1.07349 17.3823 2.55728C17.3504 2.93612 17.5102 3.3781 17.606 3.85165C23.2936 -1.38896 27.0641 -1.26268 31.5375 4.23049C31.9848 3.72537 32.3682 3.25182 32.8156 2.77827C35.4677 0.0632551 38.631 -0.410294 42.1458 0.599945C45.3091 1.51547 46.747 3.88322 47.1304 6.94551C47.3222 8.65029 47.3861 10.3866 47.3861 12.0914C47.418 17.0163 47.3861 21.9728 47.3861 27.024V26.9924Z" fill="#E7226D"/>
<path id="Vector_2" d="M182.035 26.9922C182.035 24.2456 182.035 21.6253 182.035 19.005C182.035 16.2584 182.035 13.5118 182.035 10.7653C182.035 8.36594 181.364 7.51355 179.638 7.48198C177.721 7.45041 176.635 8.58693 176.603 10.86C176.539 15.7533 176.603 20.6467 176.603 25.54C176.603 25.9504 176.571 26.3924 176.539 26.9606H167.496V0.726011C170.02 0.726011 172.449 0.726011 174.877 0.757581C175.165 0.757581 175.612 1.29427 175.708 1.64154C175.9 2.33608 175.868 3.09376 175.932 3.94615C181.747 -1.38918 185.869 -1.2629 190.119 4.26185C190.502 3.81987 190.886 3.37789 191.269 2.96748C194.049 -0.0316685 198.586 -0.789348 202.197 1.13642C204.913 2.58864 205.871 5.1458 205.967 7.89239C206.127 14.238 206.031 20.5835 206.031 27.0238H196.861C196.861 25.0665 196.861 23.1407 196.861 21.2149C196.861 17.8369 196.861 14.4274 196.861 11.0494C196.861 8.49222 196.222 7.57669 194.528 7.51355C192.483 7.45041 191.429 8.6185 191.397 11.1441C191.333 15.8165 191.365 20.4888 191.365 25.1927C191.365 25.761 191.365 26.3608 191.365 27.0238H182.131L182.035 26.9922Z" fill="#E7226D"/>
<path id="Vector_3" d="M79.4673 29.518C81.9916 28.8866 84.2922 28.2867 86.5928 27.7816C86.9124 27.7185 87.4556 28.0973 87.7112 28.413C89.0852 30.1178 91.2579 30.7492 93.3988 29.9915C95.3479 29.297 95.6355 27.6869 95.6674 25.9506C95.6674 25.1929 95.6674 24.4668 95.6674 23.4881C95.1881 23.8038 94.8686 23.9932 94.613 24.2142C89.884 27.9079 82.8863 26.582 80.2342 21.2782C77.646 16.006 77.6141 10.5128 80.394 5.27223C83.4295 -0.410367 90.2994 -1.48375 95.1881 2.71506C95.3479 2.84134 95.5077 2.96762 95.8272 3.22018C95.987 2.39936 96.1148 1.70482 96.2426 0.852432H104.774C104.806 1.45226 104.87 2.02052 104.87 2.58878C104.87 9.47103 104.87 16.3533 104.87 23.2355C104.87 33.1169 99.9172 37.663 89.9159 36.9369C85.091 36.5896 81.4484 34.4744 79.4354 29.5495L79.4673 29.518ZM96.1148 13.3226C95.8911 12.1545 95.7952 10.9864 95.4757 9.84987C94.9645 8.11352 93.7503 7.29271 91.9929 7.26114C90.2035 7.26114 88.9893 8.05038 88.4461 9.75516C87.6792 12.1229 87.6792 14.5222 88.4461 16.89C89.0212 18.6895 90.2994 19.5103 92.0887 19.4787C93.8142 19.4471 94.9964 18.5948 95.5077 16.7953C95.8272 15.6587 95.9231 14.4907 96.1467 13.291L96.1148 13.3226Z" fill="#E7226D"/>
<path id="Vector_4" d="M51.4441 9.15537C52.2749 3.9779 56.2051 0.599909 61.9885 0.22107C64.2252 0.06322 66.5578 0.31578 68.7625 0.757759C72.501 1.51544 74.9294 4.07261 75.0572 7.82943C75.2809 14.1434 75.1211 20.489 75.1211 27.0871C72.9164 27.0871 70.456 27.0871 67.9637 27.0555C67.7081 27.0555 67.3246 26.582 67.2288 26.2347C67.0371 25.7612 67.0371 25.2245 66.9412 24.4984C63.8418 27.3712 60.295 27.9711 56.4926 27.3397C52.7541 26.7083 50.5174 24.2458 50.2618 20.5521C50.0062 16.669 51.6678 14.175 55.4701 13.0385C57.4512 12.4702 59.4962 12.2177 61.5092 11.7441C62.5956 11.4915 63.8418 11.3021 64.7045 10.6707C65.3436 10.2287 65.8548 9.09223 65.7909 8.30298C65.759 7.79786 64.6406 7.10332 63.9376 6.94547C62.0844 6.56663 60.5826 7.41902 59.9755 9.21851C59.624 10.3235 59.0808 10.4497 58.0583 10.2603C55.8855 9.84991 53.6808 9.53421 51.4121 9.15537H51.4441ZM65.8868 15.5641C64.385 15.9745 62.8832 16.3849 61.4134 16.7953C60.1992 17.1426 59.624 17.9634 59.8157 19.1946C60.0074 20.489 60.9021 20.9625 62.0844 21.0572C65.024 21.2782 66.6536 18.9421 65.8868 15.5325V15.5641Z" fill="#E7226D"/>
<path id="Vector_5" d="M118.482 26.9924H109.216C109.216 26.3295 109.216 25.7612 109.216 25.1614C109.216 17.6477 109.279 10.1025 109.184 2.58886C109.184 0.978795 109.663 0.536816 111.229 0.663095C112.858 0.789375 114.488 0.789375 116.117 0.663095C117.715 0.536816 118.322 1.13664 118.194 2.62043C118.194 2.9677 118.258 3.34654 118.322 3.94637C118.897 3.40968 119.313 3.03084 119.728 2.652C122.093 0.473675 124.872 -0.252434 128.004 0.252686C131.039 0.726235 132.829 2.62043 133.532 5.46173C133.883 6.85081 134.107 8.3346 134.139 9.75525C134.203 15.1853 134.139 20.6153 134.139 26.0453C134.139 26.2979 134.075 26.582 134.011 26.9609H124.936C124.936 26.3295 124.872 25.7612 124.84 25.193C124.84 20.9942 124.84 16.7953 124.84 12.6281C124.84 11.7126 124.777 10.7971 124.649 9.88153C124.489 8.55559 123.818 7.67163 122.412 7.51378C120.942 7.35593 119.6 7.60849 119.025 9.09228C118.674 10.0078 118.482 11.0812 118.482 12.0599C118.418 16.4165 118.482 20.7732 118.482 25.1298C118.482 25.6981 118.482 26.2979 118.482 26.9609V26.9924Z" fill="#E7226D"/>
<path id="Vector_6" d="M162.864 0.694594V26.9924H154.333C154.205 25.9821 154.077 25.035 153.981 24.0879C153.79 23.8985 153.598 23.7091 153.406 23.4881C153.182 23.9617 153.087 24.5615 152.767 24.9088C151.361 26.3925 149.572 27.3081 147.495 27.5291C141.935 28.1289 138.772 25.477 138.484 19.5103C138.229 13.6067 138.388 7.67156 138.356 1.76797C138.356 0.915584 138.708 0.631454 139.539 0.663024C141.775 0.663024 144.012 0.726164 146.217 0.663024C147.303 0.663024 147.623 1.01029 147.623 2.0521C147.591 6.4719 147.623 10.8601 147.623 15.2799C147.623 16.227 147.687 17.2057 147.846 18.1528C148.07 19.4787 148.933 20.2364 150.307 20.2995C151.713 20.3627 152.831 19.8576 153.278 18.5316C153.63 17.5214 153.726 16.4164 153.758 15.3746C153.821 10.9548 153.821 6.56661 153.758 2.14681C153.758 1.04186 154.045 0.599884 155.227 0.631454C157.72 0.694594 160.212 0.631454 162.896 0.631454L162.864 0.694594Z" fill="#E7226D"/>
</g>
<defs>
<clipPath id="clip0_339_206">
<rect width="206" height="37" fill="white"/>
</clipPath>
</defs>
</svg>
